:SAMPLES-PER-SECOND 30
:FULLY-SPECIFIED
:DEGREES
226
root  6.03165 29.8798 -0.455202 4.76688 -60.6058 -5.1097
RightUpLeg  -48.3191 -2.8754 6.0055
RightLeg  82.7531 -0.0711069 -3.77753
RightFoot  -31.263 1.23542 8.24205
RightToes  -1.28057e-009 0 -3.6325e-017
Spine  41.6599 -1.73187 -0.718376
Spine1  -0.811425 -3.24305 7.72346
HEad  -39.8218 -14.6006 7.41051
LeftShoulder1  1.85932 -6.80553 -10.8715
LeftArm  28.3703 -34.1401 -73.2074
LeftForeArm  34.2506 -23.8876 -3.33975
LeftHand  0.857202 7.08581 52.3437
RightShoulder  1.03905 2.28608 10.7465
RightArm  -0.624643 18.231 70.304
RightForeArm  26.7021 29.3701 4.89626
RightHand  -3.36102 1.57892 -52.4618
LeftUpLeg  -49.7806 -10.1266 -0.823981
LeftLeg  82.6188 1.13068 14.6709
LeftFoot  -31.334 -1.09854 -7.31261
LeftToes  -7.27922e-012 9.28972e-011 -9.04533e-012
227
root  6.08882 29.6216 0.269074 -16.1291 -63.8741 16.9501
RightUpLeg  -49.7191 6.82099 -6.74791
RightLeg  87.2336 0.185501 -6.98602
RightFoot  -30.1733 1.35188 9.37825
RightToes  -1.28057e-009 0 -3.6325e-017
Spine  38.9907 -3.19492 1.71418
Spine1  2.06036 -0.653993 -7.50787
HEad  -38.273 -22.5826 7.21645
LeftShoulder1  1.97542 -7.27409 -11.1522
LeftArm  9.86904 -32.705 -60.7963
LeftForeArm  32.6021 -25.0482 -3.6431
LeftHand  0.754733 6.87488 52.2909
RightShoulder  0.759314 1.41457 7.94871
RightArm  6.34182 22.4495 78.8437
RightForeArm  37.1399 35.7201 5.85575
RightHand  -3.35639 1.61864 -52.1323
LeftUpLeg  -46.5896 0.551792 -13.9686
LeftLeg  80.7935 1.13027 11.1152
LeftFoot  -33.2082 -0.57519 -3.99639
LeftToes  -7.27922e-012 9.28972e-011 -9.04533e-012
228
root  6.09221 29.3943 0.907445 -37.3181 -64.7328 38.4813
RightUpLeg  -51.571 15.8874 -17.1545
RightLeg  90.8182 0.746392 -9.15991
RightFoot  -28.1504 1.28746 9.98749
RightToes  -1.28057e-009 0 -3.6325e-017
Spine  37.3649 -3.86732 3.98056
Spine1  3.89714 2.77121 -21.3426
HEad  -34.8694 -28.0268 6.8972
LeftShoulder1  1.46109 -6.10761 -7.54602
LeftArm  -8.7533 -34.0681 -54.4068
LeftForeArm  35.3512 -28.3234 -4.19145
LeftHand  1.15591 7.59262 54.338
RightShoulder  0.474215 0.462466 3.97774
RightArm  9.45691 26.8563 84.4073
RightForeArm  49.525 47.1671 8.55848
RightHand  -3.13337 1.28041 -51.2648
LeftUpLeg  -44.8354 11.6964 -23.7362
LeftLeg  79.7208 0.692869 6.66404
LeftFoot  -33.3419 -0.302991 -2.5901
LeftToes  -7.27922e-012 9.28972e-011 -9.04533e-012
229
root  6.15337 29.167 1.27274 -47.4104 -63.4282 47.8556
RightUpLeg  -52.4782 19.863 -21.8977
RightLeg  93.2578 1.30808 -10.8406
RightFoot  -26.2032 1.14358 10.1081
RightToes  -1.28057e-009 0 -3.6325e-017
Spine  37.7604 -4.7497 5.76184
Spine1  3.61294 4.01417 -28.472
HEad  -31.477 -29.4524 5.1401
LeftShoulder1  0.783577 -3.21587 -3.64994
LeftArm  -25.5587 -37.4339 -53.0112
LeftForeArm  40.7818 -36.5807 -5.86385
LeftHand  1.34038 7.89372 55.3891
RightShoulder  0.217519 -0.749574 -0.719607
RightArm  8.78185 31.4996 84.5625
RightForeArm  61.6722 62.6984 16.4275
RightHand  -2.60003 0.167024 -51.1465
LeftUpLeg  -44.6502 17.0415 -27.8791
LeftLeg  80.838 0.124411 3.27766
LeftFoot  -31.1319 -0.477112 -3.84309
LeftToes  -7.27922e-012 9.28972e-011 -9.04533e-012
230
root  6.27886 28.8599 1.25255 -45.0731 -62.5388 44.2434
RightUpLeg  -51.9198 18.1937 -20.6712
RightLeg  94.7463 1.65342 -11.2695
RightFoot  -25.6985 1.06534 9.82721
RightToes  -1.28057e-009 0 -3.6325e-017
Spine  39.5345 -5.45335 5.91105
Spine1  1.93523 2.50067 -26.8715
HEad  -29.6992 -27.597 3.0565
LeftShoulder1  0.41912 -0.984036 -1.11106
LeftArm  -36.6186 -40.9984 -53.766
LeftForeArm  47.2052 -51.3588 -10.5696
LeftHand  1.26652 7.79267 54.6632
RightShoulder  0.0597762 -2.22475 -4.28195
RightArm  1.55756 35.2194 78.3903
RightForeArm  88.3258 78.0625 44.2895
RightHand  -2.3774 -0.406963 -52.0382
LeftUpLeg  -45.3936 15.2622 -26.9354
LeftLeg  83.6436 -0.0453923 3.3378
LeftFoot  -28.6141 -0.705311 -5.75318
LeftToes  -7.27922e-012 9.28972e-011 -9.04533e-012
231
root  6.39058 28.4253 0.880503 -36.7173 -62.9688 34.5147
RightUpLeg  -51.1883 13.7809 -15.7517
RightLeg  95.6154 1.5752 -9.37763
RightFoot  -27.1173 1.08656 9.16446
RightToes  -1.28057e-009 0 -3.6325e-017
Spine  42.4838 -4.52963 3.56779
Spine1  -1.10917 0.386927 -18.7896
HEad  -29.2043 -24.131 2.30351
LeftShoulder1  0.367012 -1.38073 0.971598
LeftArm  -41.0114 -44.6166 -53.5576
LeftForeArm  61.8291 -69.2253 -23.993
LeftHand  1.57438 8.45437 53.7226
RightShoulder  0.0014914 -3.45251 -5.08192
RightArm  -13.1616 35.3025 66.5837
RightForeArm  160.62 80.118 123.769
RightHand  -2.26549 -0.62901 -51.9105
LeftUpLeg  -46.7101 10.1265 -22.852
LeftLeg  86.7882 -0.143667 6.89074
LeftFoot  -28.4494 -0.798152 -6.43787
LeftToes  -7.27922e-012 9.28972e-011 -9.04533e-012
232
root  6.42293 27.9185 0.280035 -25.1778 -64.3708 21.9379
RightUpLeg  -51.3822 8.69482 -8.55085
RightLeg  96.006 1.20328 -6.28203
RightFoot  -29.2215 1.03473 7.83951
RightToes  -1.28057e-009 0 -3.6325e-017
Spine  45.7114 -1.77816 -0.503049
Spine1  -5.43681 -0.641969 -8.05424
HEad  -28.6639 -19.8395 2.91388
LeftShoulder1  0.322457 -3.02814 3.9802
LeftArm  -36.9491 -50.0179 -54.731
LeftForeArm  112.218 -81.3707 -70.646
LeftHand  1.73208 8.84975 52.6042
RightShoulder  -0.0261141 -4.00636 -3.47879
RightArm  -30.5044 29.5805 52.8605
RightForeArm  170.428 75.598 143.56
RightHand  -2.19911 -0.58425 -50.2019
LeftUpLeg  -48.7915 4.19828 -16.4844
LeftLeg  89.8694 -0.676075 11.9444
LeftFoot  -30.1488 -1.03306 -7.30982
LeftToes  -7.27922e-012 9.28972e-011 -9.04533e-012
